<svg width="24" height="24" viewBox="0 0 24 24" fill="none" xmlns="http://www.w3.org/2000/svg">
<path d="M10.518 8.998L10 7.73L9.48 8.998H10.518ZM5.75 3C5.02065 3 4.32118 3.28973 3.80546 3.80546C3.28973 4.32118 3 5.02065 3 5.75V18.25C3 18.9793 3.28973 19.6788 3.80546 20.1945C4.32118 20.7103 5.02065 21 5.75 21H12.022C11.3528 19.9554 10.9981 18.7405 11 17.5C11 16.614 11.177 15.77 11.498 15H5.75C5.55109 15 5.36032 14.921 5.21967 14.7803C5.07902 14.6397 5 14.4489 5 14.25C5 14.0511 5.07902 13.8603 5.21967 13.7197C5.36032 13.579 5.55109 13.5 5.75 13.5H12.376C12.9834 12.7207 13.7607 12.0904 14.6487 11.6571C15.5367 11.2239 16.5119 10.9991 17.5 11C18.7405 10.9981 19.9554 11.3528 21 12.022V5.75C21 5.02065 20.7103 4.32118 20.1945 3.80546C19.6788 3.28973 18.9793 3 18.25 3H5.75ZM9.25 18.5H5.75C5.55109 18.5 5.36032 18.421 5.21967 18.2803C5.07902 18.1397 5 17.9489 5 17.75C5 17.5511 5.07902 17.3603 5.21967 17.2197C5.36032 17.079 5.55109 17 5.75 17H9.25C9.44891 17 9.63968 17.079 9.78033 17.2197C9.92098 17.3603 10 17.5511 10 17.75C10 17.9489 9.92098 18.1397 9.78033 18.2803C9.63968 18.421 9.44891 18.5 9.25 18.5ZM10.694 5.464L12.942 10.966C13.0173 11.1502 13.0164 11.3568 12.9394 11.5403C12.8624 11.7238 12.7157 11.8692 12.5315 11.9445C12.3473 12.0198 12.1407 12.0189 11.9572 11.9419C11.7737 11.8649 11.6283 11.7182 11.553 11.534L11.13 10.498H8.868L8.444 11.534C8.36613 11.7143 8.22063 11.8569 8.03877 11.9311C7.8569 12.0053 7.65319 12.0052 7.47141 11.9308C7.28963 11.8564 7.14428 11.7137 7.0666 11.5333C6.98893 11.3529 6.98512 11.1492 7.056 10.966L9.306 5.464C9.36243 5.32629 9.45855 5.20848 9.58213 5.12556C9.70572 5.04264 9.85118 4.99837 10 4.99837C10.1488 4.99837 10.2943 5.04264 10.4179 5.12556C10.5415 5.20848 10.6376 5.32629 10.694 5.464ZM16.5 5.747V6.997H17.75C17.9489 6.997 18.1397 7.07602 18.2803 7.21667C18.421 7.35732 18.5 7.54809 18.5 7.747C18.5 7.94591 18.421 8.13668 18.2803 8.27733C18.1397 8.41798 17.9489 8.497 17.75 8.497H16.5V9.747C16.5 9.94591 16.421 10.1367 16.2803 10.2773C16.1397 10.418 15.9489 10.497 15.75 10.497C15.5511 10.497 15.3603 10.418 15.2197 10.2773C15.079 10.1367 15 9.94591 15 9.747V8.497H13.75C13.5511 8.497 13.3603 8.41798 13.2197 8.27733C13.079 8.13668 13 7.94591 13 7.747C13 7.54809 13.079 7.35732 13.2197 7.21667C13.3603 7.07602 13.5511 6.997 13.75 6.997H15V5.747C15 5.54809 15.079 5.35732 15.2197 5.21667C15.3603 5.07602 15.5511 4.997 15.75 4.997C15.9489 4.997 16.1397 5.07602 16.2803 5.21667C16.421 5.35732 16.5 5.54809 16.5 5.747ZM23 17.5C23 16.0413 22.4205 14.6424 21.3891 13.6109C20.3576 12.5795 18.9587 12 17.5 12C16.0413 12 14.6424 12.5795 13.6109 13.6109C12.5795 14.6424 12 16.0413 12 17.5C12 18.9587 12.5795 20.3576 13.6109 21.3891C14.6424 22.4205 16.0413 23 17.5 23C18.9587 23 20.3576 22.4205 21.3891 21.3891C22.4205 20.3576 23 18.9587 23 17.5ZM18 18L18.001 20.503C18.001 20.6356 17.9483 20.7628 17.8546 20.8566C17.7608 20.9503 17.6336 21.003 17.501 21.003C17.3684 21.003 17.2412 20.9503 17.1474 20.8566C17.0537 20.7628 17.001 20.6356 17.001 20.503V18H14.496C14.3634 18 14.2362 17.9473 14.1424 17.8536C14.0487 17.7598 13.996 17.6326 13.996 17.5C13.996 17.3674 14.0487 17.2402 14.1424 17.1464C14.2362 17.0527 14.3634 17 14.496 17H17V14.5C17 14.3674 17.0527 14.2402 17.1464 14.1464C17.2402 14.0527 17.3674 14 17.5 14C17.6326 14 17.7598 14.0527 17.8536 14.1464C17.9473 14.2402 18 14.3674 18 14.5V17H20.503C20.6356 17 20.7628 17.0527 20.8566 17.1464C20.9503 17.2402 21.003 17.3674 21.003 17.5C21.003 17.6326 20.9503 17.7598 20.8566 17.8536C20.7628 17.9473 20.6356 18 20.503 18H18Z" fill="white"/>
</svg>
